<mxfile host="app.diagrams.net" agent="Mozilla/5.0 (X11; Ubuntu; Linux x86_64; rv:142.0) Gecko/20100101 Firefox/142.0" version="28.2.1">
  <diagram id="R2lEEEUBdFMjLlhIrx00" name="Page-1">
    <mxGraphModel dx="815" dy="456" grid="1" gridSize="10" guides="1" tooltips="1" connect="1" arrows="1" fold="1" page="1" pageScale="1" pageWidth="850" pageHeight="1100" math="0" shadow="0" extFonts="Permanent Marker^https://fonts.googleapis.com/css?family=Permanent+Marker">
      <root>
        <mxCell id="0" />
        <mxCell id="1" parent="0" />
        <mxCell id="4cM1UkZCm5Ez6TQwr9Vs-64" style="edgeStyle=orthogonalEdgeStyle;rounded=0;orthogonalLoop=1;jettySize=auto;html=1;endArrow=none;endFill=0;" edge="1" parent="1" source="4cM1UkZCm5Ez6TQwr9Vs-63" target="4cM1UkZCm5Ez6TQwr9Vs-69">
          <mxGeometry relative="1" as="geometry">
            <mxPoint x="340.02857142857147" y="190.0238095238094" as="targetPoint" />
          </mxGeometry>
        </mxCell>
        <mxCell id="4cM1UkZCm5Ez6TQwr9Vs-63" value="" style="whiteSpace=wrap;html=1;" vertex="1" parent="1">
          <mxGeometry x="125" y="20" width="430" height="140" as="geometry" />
        </mxCell>
        <mxCell id="XrPNCrt0sU9ygLMACBDO-2" style="edgeStyle=orthogonalEdgeStyle;rounded=0;orthogonalLoop=1;jettySize=auto;html=1;shape=wire;dashed=1;endArrow=none;endFill=0;entryX=0;entryY=0.5;entryDx=0;entryDy=0;" parent="1" source="XrPNCrt0sU9ygLMACBDO-1" edge="1" target="XrPNCrt0sU9ygLMACBDO-16">
          <mxGeometry relative="1" as="geometry">
            <mxPoint x="310" y="195" as="targetPoint" />
            <mxPoint x="280" y="94.71" as="sourcePoint" />
            <Array as="points" />
          </mxGeometry>
        </mxCell>
        <mxCell id="XrPNCrt0sU9ygLMACBDO-1" value="Programador" style="rounded=0;whiteSpace=wrap;html=1;" parent="1" vertex="1">
          <mxGeometry x="160" y="80" width="110" height="50" as="geometry" />
        </mxCell>
        <mxCell id="XrPNCrt0sU9ygLMACBDO-44" style="edgeStyle=orthogonalEdgeStyle;rounded=0;orthogonalLoop=1;jettySize=auto;html=1;endArrow=none;endFill=0;" parent="1" source="XrPNCrt0sU9ygLMACBDO-10" target="XrPNCrt0sU9ygLMACBDO-43" edge="1">
          <mxGeometry relative="1" as="geometry" />
        </mxCell>
        <mxCell id="XrPNCrt0sU9ygLMACBDO-10" value="Lenguaje de programación" style="whiteSpace=wrap;html=1;rounded=0;" parent="1" vertex="1">
          <mxGeometry x="410" y="80" width="110" height="50" as="geometry" />
        </mxCell>
        <mxCell id="XrPNCrt0sU9ygLMACBDO-19" style="edgeStyle=orthogonalEdgeStyle;rounded=0;orthogonalLoop=1;jettySize=auto;html=1;endArrow=none;endFill=0;" parent="1" source="XrPNCrt0sU9ygLMACBDO-16" target="XrPNCrt0sU9ygLMACBDO-10" edge="1">
          <mxGeometry relative="1" as="geometry">
            <mxPoint x="785" y="130" as="sourcePoint" />
          </mxGeometry>
        </mxCell>
        <mxCell id="XrPNCrt0sU9ygLMACBDO-16" value="sabe" style="rhombus;whiteSpace=wrap;html=1;" parent="1" vertex="1">
          <mxGeometry x="310" y="80" width="60" height="50" as="geometry" />
        </mxCell>
        <mxCell id="XrPNCrt0sU9ygLMACBDO-43" value="&lt;u&gt;nombre&lt;/u&gt;" style="ellipse;whiteSpace=wrap;html=1;" parent="1" vertex="1">
          <mxGeometry x="430" y="40" width="70" height="30" as="geometry" />
        </mxCell>
        <mxCell id="XrPNCrt0sU9ygLMACBDO-73" value="&lt;u&gt;dni&lt;/u&gt;" style="ellipse;whiteSpace=wrap;html=1;" parent="1" vertex="1">
          <mxGeometry x="180" y="40" width="70" height="30" as="geometry" />
        </mxCell>
        <mxCell id="XrPNCrt0sU9ygLMACBDO-79" style="edgeStyle=orthogonalEdgeStyle;rounded=0;orthogonalLoop=1;jettySize=auto;html=1;exitX=0.5;exitY=0;exitDx=0;exitDy=0;entryX=0.457;entryY=1.021;entryDx=0;entryDy=0;entryPerimeter=0;endArrow=none;endFill=0;" parent="1" source="XrPNCrt0sU9ygLMACBDO-1" target="XrPNCrt0sU9ygLMACBDO-73" edge="1">
          <mxGeometry relative="1" as="geometry" />
        </mxCell>
        <mxCell id="4cM1UkZCm5Ez6TQwr9Vs-19" style="edgeStyle=orthogonalEdgeStyle;rounded=0;orthogonalLoop=1;jettySize=auto;html=1;endArrow=none;endFill=0;" edge="1" parent="1" source="4cM1UkZCm5Ez6TQwr9Vs-28" target="4cM1UkZCm5Ez6TQwr9Vs-18">
          <mxGeometry relative="1" as="geometry">
            <mxPoint x="645" y="190" as="sourcePoint" />
          </mxGeometry>
        </mxCell>
        <mxCell id="4cM1UkZCm5Ez6TQwr9Vs-10" style="edgeStyle=orthogonalEdgeStyle;rounded=0;orthogonalLoop=1;jettySize=auto;html=1;endArrow=none;endFill=0;" edge="1" parent="1" source="4cM1UkZCm5Ez6TQwr9Vs-69" target="4cM1UkZCm5Ez6TQwr9Vs-28">
          <mxGeometry relative="1" as="geometry">
            <mxPoint x="370" y="215" as="sourcePoint" />
            <mxPoint x="635" y="130" as="targetPoint" />
          </mxGeometry>
        </mxCell>
        <mxCell id="4cM1UkZCm5Ez6TQwr9Vs-61" style="edgeStyle=orthogonalEdgeStyle;rounded=0;orthogonalLoop=1;jettySize=auto;html=1;endArrow=none;endFill=0;" edge="1" parent="1" source="4cM1UkZCm5Ez6TQwr9Vs-69" target="4cM1UkZCm5Ez6TQwr9Vs-12">
          <mxGeometry relative="1" as="geometry">
            <mxPoint x="310.0342857142857" y="215.02857142857135" as="sourcePoint" />
          </mxGeometry>
        </mxCell>
        <mxCell id="4cM1UkZCm5Ez6TQwr9Vs-12" value="&lt;u&gt;nota&lt;/u&gt;" style="ellipse;whiteSpace=wrap;html=1;" vertex="1" parent="1">
          <mxGeometry x="230" y="200" width="70" height="30" as="geometry" />
        </mxCell>
        <mxCell id="4cM1UkZCm5Ez6TQwr9Vs-15" value="n" style="text;html=1;align=center;verticalAlign=middle;resizable=0;points=[];autosize=1;strokeColor=none;fillColor=none;" vertex="1" parent="1">
          <mxGeometry x="270" y="80" width="30" height="30" as="geometry" />
        </mxCell>
        <mxCell id="4cM1UkZCm5Ez6TQwr9Vs-16" value="m" style="text;html=1;align=center;verticalAlign=middle;resizable=0;points=[];autosize=1;strokeColor=none;fillColor=none;" vertex="1" parent="1">
          <mxGeometry x="380" y="80" width="30" height="30" as="geometry" />
        </mxCell>
        <mxCell id="4cM1UkZCm5Ez6TQwr9Vs-18" value="&lt;font style=&quot;font-size: 10px;&quot;&gt;cantEjercicios&lt;/font&gt;" style="ellipse;whiteSpace=wrap;html=1;" vertex="1" parent="1">
          <mxGeometry x="620" y="200" width="70" height="30" as="geometry" />
        </mxCell>
        <mxCell id="4cM1UkZCm5Ez6TQwr9Vs-22" value="nivel" style="ellipse;whiteSpace=wrap;html=1;" vertex="1" parent="1">
          <mxGeometry x="690" y="200" width="70" height="30" as="geometry" />
        </mxCell>
        <mxCell id="4cM1UkZCm5Ez6TQwr9Vs-23" value="&lt;u&gt;&lt;font style=&quot;font-size: 10px;&quot;&gt;fechaCreación&lt;/font&gt;&lt;/u&gt;" style="ellipse;whiteSpace=wrap;html=1;" vertex="1" parent="1">
          <mxGeometry x="620" y="170" width="70" height="30" as="geometry" />
        </mxCell>
        <mxCell id="4cM1UkZCm5Ez6TQwr9Vs-24" value="texto" style="ellipse;whiteSpace=wrap;html=1;" vertex="1" parent="1">
          <mxGeometry x="690" y="170" width="70" height="30" as="geometry" />
        </mxCell>
        <mxCell id="4cM1UkZCm5Ez6TQwr9Vs-28" value="Exámen" style="shape=ext;margin=3;double=1;whiteSpace=wrap;html=1;align=center;" vertex="1" parent="1">
          <mxGeometry x="500" y="195" width="100" height="40" as="geometry" />
        </mxCell>
        <mxCell id="4cM1UkZCm5Ez6TQwr9Vs-59" value="a)" style="text;html=1;align=center;verticalAlign=middle;resizable=0;points=[];autosize=1;strokeColor=none;fillColor=none;" vertex="1" parent="1">
          <mxGeometry x="10" y="10" width="30" height="30" as="geometry" />
        </mxCell>
        <mxCell id="4cM1UkZCm5Ez6TQwr9Vs-60" value="b)" style="text;html=1;align=center;verticalAlign=middle;resizable=0;points=[];autosize=1;strokeColor=none;fillColor=none;" vertex="1" parent="1">
          <mxGeometry x="10" y="270" width="30" height="30" as="geometry" />
        </mxCell>
        <mxCell id="4cM1UkZCm5Ez6TQwr9Vs-65" value="n" style="text;html=1;align=center;verticalAlign=middle;resizable=0;points=[];autosize=1;strokeColor=none;fillColor=none;" vertex="1" parent="1">
          <mxGeometry x="340" y="160" width="30" height="30" as="geometry" />
        </mxCell>
        <mxCell id="4cM1UkZCm5Ez6TQwr9Vs-66" value="m" style="text;html=1;align=center;verticalAlign=middle;resizable=0;points=[];autosize=1;strokeColor=none;fillColor=none;" vertex="1" parent="1">
          <mxGeometry x="470" y="190" width="30" height="30" as="geometry" />
        </mxCell>
        <mxCell id="4cM1UkZCm5Ez6TQwr9Vs-69" value="rinde" style="shape=rhombus;double=1;perimeter=rhombusPerimeter;whiteSpace=wrap;html=1;align=center;" vertex="1" parent="1">
          <mxGeometry x="305" y="190" width="70" height="50" as="geometry" />
        </mxCell>
        <mxCell id="4cM1UkZCm5Ez6TQwr9Vs-96" style="edgeStyle=orthogonalEdgeStyle;rounded=0;orthogonalLoop=1;jettySize=auto;html=1;endArrow=none;endFill=0;" edge="1" parent="1">
          <mxGeometry relative="1" as="geometry">
            <mxPoint x="520.0285714285715" y="380.0204081632653" as="targetPoint" />
            <mxPoint x="520.0285714285715" y="350" as="sourcePoint" />
          </mxGeometry>
        </mxCell>
        <mxCell id="4cM1UkZCm5Ez6TQwr9Vs-97" value="" style="whiteSpace=wrap;html=1;" vertex="1" parent="1">
          <mxGeometry x="125" y="300" width="430" height="140" as="geometry" />
        </mxCell>
        <mxCell id="4cM1UkZCm5Ez6TQwr9Vs-98" style="edgeStyle=orthogonalEdgeStyle;rounded=0;orthogonalLoop=1;jettySize=auto;html=1;shape=wire;dashed=1;endArrow=none;endFill=0;entryX=0;entryY=0.5;entryDx=0;entryDy=0;" edge="1" parent="1" source="4cM1UkZCm5Ez6TQwr9Vs-99" target="4cM1UkZCm5Ez6TQwr9Vs-103">
          <mxGeometry relative="1" as="geometry">
            <mxPoint x="310" y="475" as="targetPoint" />
            <mxPoint x="280" y="374.71000000000004" as="sourcePoint" />
            <Array as="points" />
          </mxGeometry>
        </mxCell>
        <mxCell id="4cM1UkZCm5Ez6TQwr9Vs-99" value="Programador" style="rounded=0;whiteSpace=wrap;html=1;" vertex="1" parent="1">
          <mxGeometry x="160" y="360" width="110" height="50" as="geometry" />
        </mxCell>
        <mxCell id="4cM1UkZCm5Ez6TQwr9Vs-100" style="edgeStyle=orthogonalEdgeStyle;rounded=0;orthogonalLoop=1;jettySize=auto;html=1;endArrow=none;endFill=0;" edge="1" parent="1" source="4cM1UkZCm5Ez6TQwr9Vs-101" target="4cM1UkZCm5Ez6TQwr9Vs-104">
          <mxGeometry relative="1" as="geometry" />
        </mxCell>
        <mxCell id="4cM1UkZCm5Ez6TQwr9Vs-101" value="Lenguaje de programación" style="whiteSpace=wrap;html=1;rounded=0;" vertex="1" parent="1">
          <mxGeometry x="410" y="360" width="110" height="50" as="geometry" />
        </mxCell>
        <mxCell id="4cM1UkZCm5Ez6TQwr9Vs-102" style="edgeStyle=orthogonalEdgeStyle;rounded=0;orthogonalLoop=1;jettySize=auto;html=1;endArrow=none;endFill=0;" edge="1" parent="1" source="4cM1UkZCm5Ez6TQwr9Vs-103" target="4cM1UkZCm5Ez6TQwr9Vs-101">
          <mxGeometry relative="1" as="geometry">
            <mxPoint x="785" y="410" as="sourcePoint" />
          </mxGeometry>
        </mxCell>
        <mxCell id="4cM1UkZCm5Ez6TQwr9Vs-103" value="sabe" style="rhombus;whiteSpace=wrap;html=1;" vertex="1" parent="1">
          <mxGeometry x="310" y="360" width="60" height="50" as="geometry" />
        </mxCell>
        <mxCell id="4cM1UkZCm5Ez6TQwr9Vs-104" value="&lt;u&gt;nombre&lt;/u&gt;" style="ellipse;whiteSpace=wrap;html=1;" vertex="1" parent="1">
          <mxGeometry x="430" y="320" width="70" height="30" as="geometry" />
        </mxCell>
        <mxCell id="4cM1UkZCm5Ez6TQwr9Vs-105" value="&lt;u&gt;dni&lt;/u&gt;" style="ellipse;whiteSpace=wrap;html=1;" vertex="1" parent="1">
          <mxGeometry x="180" y="320" width="70" height="30" as="geometry" />
        </mxCell>
        <mxCell id="4cM1UkZCm5Ez6TQwr9Vs-106" style="edgeStyle=orthogonalEdgeStyle;rounded=0;orthogonalLoop=1;jettySize=auto;html=1;exitX=0.5;exitY=0;exitDx=0;exitDy=0;entryX=0.457;entryY=1.021;entryDx=0;entryDy=0;entryPerimeter=0;endArrow=none;endFill=0;" edge="1" parent="1" source="4cM1UkZCm5Ez6TQwr9Vs-99" target="4cM1UkZCm5Ez6TQwr9Vs-105">
          <mxGeometry relative="1" as="geometry" />
        </mxCell>
        <mxCell id="4cM1UkZCm5Ez6TQwr9Vs-107" style="edgeStyle=orthogonalEdgeStyle;rounded=0;orthogonalLoop=1;jettySize=auto;html=1;endArrow=none;endFill=0;" edge="1" parent="1" source="4cM1UkZCm5Ez6TQwr9Vs-117" target="4cM1UkZCm5Ez6TQwr9Vs-113">
          <mxGeometry relative="1" as="geometry">
            <mxPoint x="645" y="470" as="sourcePoint" />
          </mxGeometry>
        </mxCell>
        <mxCell id="4cM1UkZCm5Ez6TQwr9Vs-108" style="edgeStyle=orthogonalEdgeStyle;rounded=0;orthogonalLoop=1;jettySize=auto;html=1;endArrow=none;endFill=0;" edge="1" parent="1" source="4cM1UkZCm5Ez6TQwr9Vs-120" target="4cM1UkZCm5Ez6TQwr9Vs-117">
          <mxGeometry relative="1" as="geometry">
            <mxPoint x="370" y="495" as="sourcePoint" />
            <mxPoint x="635" y="410" as="targetPoint" />
          </mxGeometry>
        </mxCell>
        <mxCell id="4cM1UkZCm5Ez6TQwr9Vs-109" style="edgeStyle=orthogonalEdgeStyle;rounded=0;orthogonalLoop=1;jettySize=auto;html=1;endArrow=none;endFill=0;" edge="1" parent="1" source="4cM1UkZCm5Ez6TQwr9Vs-120" target="4cM1UkZCm5Ez6TQwr9Vs-110">
          <mxGeometry relative="1" as="geometry">
            <mxPoint x="305.0342857142857" y="495.02857142857135" as="sourcePoint" />
          </mxGeometry>
        </mxCell>
        <mxCell id="4cM1UkZCm5Ez6TQwr9Vs-110" value="&lt;u&gt;nota&lt;/u&gt;" style="ellipse;whiteSpace=wrap;html=1;" vertex="1" parent="1">
          <mxGeometry x="225" y="480" width="70" height="30" as="geometry" />
        </mxCell>
        <mxCell id="4cM1UkZCm5Ez6TQwr9Vs-111" value="n" style="text;html=1;align=center;verticalAlign=middle;resizable=0;points=[];autosize=1;strokeColor=none;fillColor=none;" vertex="1" parent="1">
          <mxGeometry x="270" y="360" width="30" height="30" as="geometry" />
        </mxCell>
        <mxCell id="4cM1UkZCm5Ez6TQwr9Vs-112" value="m" style="text;html=1;align=center;verticalAlign=middle;resizable=0;points=[];autosize=1;strokeColor=none;fillColor=none;" vertex="1" parent="1">
          <mxGeometry x="380" y="360" width="30" height="30" as="geometry" />
        </mxCell>
        <mxCell id="4cM1UkZCm5Ez6TQwr9Vs-113" value="&lt;font style=&quot;font-size: 10px;&quot;&gt;cantEjercicios&lt;/font&gt;" style="ellipse;whiteSpace=wrap;html=1;" vertex="1" parent="1">
          <mxGeometry x="620" y="480" width="70" height="30" as="geometry" />
        </mxCell>
        <mxCell id="4cM1UkZCm5Ez6TQwr9Vs-114" value="nivel" style="ellipse;whiteSpace=wrap;html=1;" vertex="1" parent="1">
          <mxGeometry x="690" y="480" width="70" height="30" as="geometry" />
        </mxCell>
        <mxCell id="4cM1UkZCm5Ez6TQwr9Vs-115" value="&lt;u&gt;&lt;font style=&quot;font-size: 10px;&quot;&gt;fechaCreación&lt;/font&gt;&lt;/u&gt;" style="ellipse;whiteSpace=wrap;html=1;" vertex="1" parent="1">
          <mxGeometry x="620" y="450" width="70" height="30" as="geometry" />
        </mxCell>
        <mxCell id="4cM1UkZCm5Ez6TQwr9Vs-116" value="texto" style="ellipse;whiteSpace=wrap;html=1;" vertex="1" parent="1">
          <mxGeometry x="690" y="450" width="70" height="30" as="geometry" />
        </mxCell>
        <mxCell id="4cM1UkZCm5Ez6TQwr9Vs-117" value="Exámen" style="shape=ext;margin=3;double=1;whiteSpace=wrap;html=1;align=center;" vertex="1" parent="1">
          <mxGeometry x="500" y="475" width="100" height="40" as="geometry" />
        </mxCell>
        <mxCell id="4cM1UkZCm5Ez6TQwr9Vs-118" value="n" style="text;html=1;align=center;verticalAlign=middle;resizable=0;points=[];autosize=1;strokeColor=none;fillColor=none;" vertex="1" parent="1">
          <mxGeometry x="340" y="440" width="30" height="30" as="geometry" />
        </mxCell>
        <mxCell id="4cM1UkZCm5Ez6TQwr9Vs-119" value="m" style="text;html=1;align=center;verticalAlign=middle;resizable=0;points=[];autosize=1;strokeColor=none;fillColor=none;" vertex="1" parent="1">
          <mxGeometry x="470" y="470" width="30" height="30" as="geometry" />
        </mxCell>
        <mxCell id="4cM1UkZCm5Ez6TQwr9Vs-120" value="rinde" style="shape=rhombus;double=1;perimeter=rhombusPerimeter;whiteSpace=wrap;html=1;align=center;" vertex="1" parent="1">
          <mxGeometry x="300" y="470" width="70" height="50" as="geometry" />
        </mxCell>
        <mxCell id="4cM1UkZCm5Ez6TQwr9Vs-125" style="edgeStyle=orthogonalEdgeStyle;rounded=0;orthogonalLoop=1;jettySize=auto;html=1;exitX=0.5;exitY=1;exitDx=0;exitDy=0;entryX=0.5;entryY=0;entryDx=0;entryDy=0;endArrow=none;endFill=0;" edge="1" parent="1" source="4cM1UkZCm5Ez6TQwr9Vs-121" target="4cM1UkZCm5Ez6TQwr9Vs-120">
          <mxGeometry relative="1" as="geometry" />
        </mxCell>
        <mxCell id="4cM1UkZCm5Ez6TQwr9Vs-121" value="" style="ellipse;whiteSpace=wrap;html=1;" vertex="1" parent="1">
          <mxGeometry x="330" y="450" width="10" height="10" as="geometry" />
        </mxCell>
        <mxCell id="4cM1UkZCm5Ez6TQwr9Vs-126" style="edgeStyle=orthogonalEdgeStyle;rounded=0;orthogonalLoop=1;jettySize=auto;html=1;exitX=0.5;exitY=0;exitDx=0;exitDy=0;entryX=0.49;entryY=1.024;entryDx=0;entryDy=0;entryPerimeter=0;endArrow=none;endFill=0;" edge="1" parent="1" source="4cM1UkZCm5Ez6TQwr9Vs-121" target="4cM1UkZCm5Ez6TQwr9Vs-97">
          <mxGeometry relative="1" as="geometry" />
        </mxCell>
      </root>
    </mxGraphModel>
  </diagram>
</mxfile>
